<svg width="1280" height="720" viewBox="0 0 1280 720" fill="none" xmlns="http://www.w3.org/2000/svg">
<g clip-path="url(#clip0_4409_16219)">
<rect width="1280" height="720" fill="#09090B"/>
<g filter="url(#filter0_f_4409_16219)">
<ellipse cx="455.561" cy="37.0053" rx="455.561" ry="37.0053" transform="matrix(-0.998228 0.059511 -0.696025 -0.718017 1354.18 18.4199)" fill="#0057FF"/>
</g>
<g filter="url(#filter1_f_4409_16219)">
<ellipse cx="530.773" cy="54.2834" rx="530.773" ry="54.2834" transform="matrix(-0.999109 0.0421997 -0.566127 -0.824318 1373 8.74773)" fill="#00FFFF"/>
</g>
<g filter="url(#filter2_f_4409_16219)">
<ellipse cx="355.742" cy="4.18822" rx="347.533" ry="60.7597" transform="rotate(-180 355.742 4.18822)" fill="#EC3039"/>
</g>
<g filter="url(#filter3_f_4409_16219)">
<ellipse cx="338.004" cy="122.468" rx="338.004" ry="122.468" transform="matrix(-0.991029 -0.133651 0.909857 -0.414922 652.636 51.9789)" fill="#00ED97"/>
</g>
<g filter="url(#filter4_f_4409_16219)">
<ellipse cx="232.93" cy="65.5904" rx="232.93" ry="65.5904" transform="matrix(-0.997852 -0.0655043 0.729769 -0.683694 371.106 55.4786)" fill="#FFA467"/>
</g>
<path d="M393.974 351.773C383.59 351.773 374.853 349.493 367.762 344.935C360.755 340.376 355.521 334.298 352.06 326.701C348.599 319.103 346.869 310.746 346.869 301.629C346.869 292.512 348.599 284.196 352.06 276.683C355.521 269.086 360.755 263.008 367.762 258.449C374.853 253.89 383.59 251.611 393.974 251.611C406.13 251.611 415.965 254.481 423.478 260.222C430.991 265.962 435.761 273.771 437.787 283.648H417.78C416.176 278.583 413.348 274.699 409.296 271.998C405.328 269.297 400.178 267.946 393.847 267.946C387.853 267.946 382.746 269.423 378.525 272.378C374.389 275.248 371.223 279.216 369.028 284.281C366.918 289.346 365.863 295.086 365.863 301.502C365.863 311.632 368.395 319.821 373.46 326.068C378.61 332.314 385.954 335.438 395.493 335.438C401.318 335.438 406.299 334.256 410.435 331.892C414.656 329.444 417.569 326.11 419.172 321.889C419.763 320.369 420.228 318.554 420.565 316.444C420.819 314.165 421.367 312.603 422.211 311.759L420.692 310.239C419.51 311.168 418.37 311.801 417.273 312.139C416.176 312.392 414.529 312.519 412.335 312.519H399.165V297.45H438.673V350H422.085V336.198H420.059C420.059 340.503 418.075 344.006 414.107 346.708C409.211 350.084 402.5 351.773 393.974 351.773ZM451.758 350V253.384H493.418C502.873 253.384 510.344 255.748 515.831 260.475C521.318 265.118 524.062 272.251 524.062 281.875C524.062 287.953 522.753 293.229 520.136 297.703C517.604 302.093 514.016 305.47 509.373 307.833C504.815 310.197 499.496 311.379 493.418 311.379H469.992V350H451.758ZM490.886 295.424C495.782 295.424 499.496 294.327 502.029 292.132C504.646 289.937 505.954 286.729 505.954 282.508C505.954 278.372 504.646 275.206 502.029 273.011C499.412 270.816 495.697 269.719 490.886 269.719H469.992V295.424H490.886ZM573.955 350H555.72V269.719H526.216V253.384H603.332V269.719H573.955V350ZM673.722 350H612.181V253.384H673.722V261.235H620.918V297.577H667.264V305.427H620.918V342.149H673.722V350ZM685.799 350V280.482H694.029V286.56C694.029 287.911 693.903 289.008 693.649 289.852C693.481 290.697 693.101 291.583 692.51 292.512L694.283 293.525C696.9 288.544 699.981 284.914 703.526 282.635C707.156 280.355 711.588 279.216 716.822 279.216C721.043 279.216 724.757 280.187 727.965 282.128C731.173 283.985 733.706 286.56 735.563 289.852C736.998 292.469 737.927 295.255 738.349 298.21C738.771 301.08 738.982 304.119 738.982 307.327V350H730.751V306.947C730.751 300.953 729.738 296.31 727.712 293.018C725.095 288.713 720.874 286.56 715.049 286.56C709.731 286.56 705.299 288.459 701.754 292.258C699.221 295.128 697.279 298.969 695.929 303.781C694.662 308.509 694.029 314.756 694.029 322.522V350H685.799ZM783.886 378.364C767.171 378.364 756.956 371.273 753.242 357.091H761.473C762.908 361.818 765.356 365.322 768.817 367.601C772.363 369.88 777.343 371.02 783.759 371.02C791.61 371.02 797.35 369.289 800.98 365.828C804.61 362.367 806.425 357.26 806.425 350.507V343.922C806.425 342.571 806.51 341.474 806.679 340.63C806.932 339.785 807.354 338.899 807.945 337.97L806.172 336.957C800.01 346.497 791.821 351.266 781.606 351.266C775.697 351.266 770.421 349.747 765.778 346.708C761.135 343.584 757.547 339.279 755.015 333.792C752.482 328.305 751.216 322.058 751.216 315.051C751.216 308.129 752.482 301.966 755.015 296.564C757.547 291.076 761.135 286.813 765.778 283.774C770.421 280.735 775.697 279.216 781.606 279.216C791.821 279.216 800.01 283.985 806.172 293.525L807.945 292.512C807.354 291.583 806.932 290.697 806.679 289.852C806.51 289.008 806.425 287.911 806.425 286.56V280.482H814.656V349.114C814.656 359.328 811.997 366.757 806.679 371.4C801.445 376.043 793.847 378.364 783.886 378.364ZM782.366 343.922C787.009 343.922 791.146 342.698 794.776 340.25C798.49 337.717 801.402 334.298 803.513 329.993C805.623 325.603 806.679 320.707 806.679 315.304C806.679 309.902 805.623 305.005 803.513 300.616C801.402 296.226 798.49 292.807 794.776 290.359C791.146 287.826 787.009 286.56 782.366 286.56C777.639 286.56 773.545 287.826 770.083 290.359C766.622 292.807 763.963 296.226 762.106 300.616C760.333 304.921 759.447 309.817 759.447 315.304C759.447 320.707 760.375 325.603 762.233 329.993C764.09 334.298 766.749 337.717 770.21 340.25C773.671 342.698 777.723 343.922 782.366 343.922ZM838.471 350H830.24V280.482H838.471V350ZM834.419 264.4C832.73 264.4 831.253 263.809 829.987 262.628C828.805 261.361 828.214 259.884 828.214 258.196C828.214 256.507 828.805 255.072 829.987 253.89C831.253 252.709 832.73 252.118 834.419 252.118C836.107 252.118 837.542 252.709 838.724 253.89C839.99 255.072 840.623 256.507 840.623 258.196C840.623 259.884 839.99 261.361 838.724 262.628C837.542 263.809 836.107 264.4 834.419 264.4ZM854.044 350V280.482H862.275V286.56C862.275 287.911 862.148 289.008 861.895 289.852C861.726 290.697 861.346 291.583 860.755 292.512L862.528 293.525C865.145 288.544 868.226 284.914 871.771 282.635C875.401 280.355 879.833 279.216 885.067 279.216C889.288 279.216 893.003 280.187 896.21 282.128C899.418 283.985 901.951 286.56 903.808 289.852C905.243 292.469 906.172 295.255 906.594 298.21C907.016 301.08 907.227 304.119 907.227 307.327V350H898.996V306.947C898.996 300.953 897.983 296.31 895.957 293.018C893.34 288.713 889.119 286.56 883.295 286.56C877.976 286.56 873.544 288.459 869.999 292.258C867.466 295.128 865.525 298.969 864.174 303.781C862.908 308.509 862.275 314.756 862.275 322.522V350H854.044ZM952.384 351.266C946.053 351.266 940.355 349.705 935.29 346.581C930.224 343.458 926.257 339.152 923.387 333.665C920.601 328.178 919.208 322.058 919.208 315.304C919.208 308.804 920.559 302.81 923.26 297.323C925.961 291.836 929.802 287.446 934.783 284.154C939.848 280.862 945.673 279.216 952.258 279.216C958.082 279.216 963.401 280.566 968.212 283.268C973.109 285.969 977.076 289.852 980.115 294.917C983.154 299.982 984.843 305.976 985.18 312.898C985.265 313.658 985.307 314.924 985.307 316.697H936.682C931.871 316.697 928.409 316.613 926.299 316.444L925.793 318.343C926.552 318.512 927.059 318.934 927.312 319.61C927.65 320.201 927.987 321.171 928.325 322.522C928.747 324.295 929.085 325.561 929.338 326.321C931.195 331.808 934.15 336.113 938.202 339.237C942.338 342.36 947.066 343.922 952.384 343.922C957.871 343.922 962.599 342.445 966.566 339.49C970.534 336.535 973.362 332.737 975.05 328.094H983.788C981.677 334.931 977.92 340.503 972.518 344.808C967.115 349.114 960.404 351.266 952.384 351.266ZM927.945 311.632C929.634 310.872 931.069 310.408 932.25 310.239C933.517 310.07 934.994 309.986 936.682 309.986H968.972C970.492 309.986 971.8 310.07 972.898 310.239C973.995 310.408 975.346 310.872 976.95 311.632L978.216 309.859C977.541 309.184 976.992 307.918 976.57 306.061C975.979 303.95 975.472 302.388 975.05 301.375C973.109 296.732 970.112 293.102 966.06 290.486C962.008 287.869 957.449 286.56 952.384 286.56C947.319 286.56 942.845 287.826 938.962 290.359C935.163 292.807 932.293 296.31 930.351 300.869C929.845 301.966 929.296 303.655 928.705 305.934C928.452 306.778 928.156 307.538 927.819 308.213C927.565 308.889 927.228 309.437 926.806 309.859L927.945 311.632ZM1028 351.266C1021.67 351.266 1015.97 349.705 1010.91 346.581C1005.84 343.458 1001.88 339.152 999.006 333.665C996.221 328.178 994.828 322.058 994.828 315.304C994.828 308.804 996.178 302.81 998.88 297.323C1001.58 291.836 1005.42 287.446 1010.4 284.154C1015.47 280.862 1021.29 279.216 1027.88 279.216C1033.7 279.216 1039.02 280.566 1043.83 283.268C1048.73 285.969 1052.7 289.852 1055.74 294.917C1058.77 299.982 1060.46 305.976 1060.8 312.898C1060.88 313.658 1060.93 314.924 1060.93 316.697H1012.3C1007.49 316.697 1004.03 316.613 1001.92 316.444L1001.41 318.343C1002.17 318.512 1002.68 318.934 1002.93 319.61C1003.27 320.201 1003.61 321.171 1003.94 322.522C1004.37 324.295 1004.7 325.561 1004.96 326.321C1006.82 331.808 1009.77 336.113 1013.82 339.237C1017.96 342.36 1022.69 343.922 1028 343.922C1033.49 343.922 1038.22 342.445 1042.19 339.49C1046.15 336.535 1048.98 332.737 1050.67 328.094H1059.41C1057.3 334.931 1053.54 340.503 1048.14 344.808C1042.73 349.114 1036.02 351.266 1028 351.266ZM1003.57 311.632C1005.25 310.872 1006.69 310.408 1007.87 310.239C1009.14 310.07 1010.61 309.986 1012.3 309.986H1044.59C1046.11 309.986 1047.42 310.07 1048.52 310.239C1049.61 310.408 1050.97 310.872 1052.57 311.632L1053.84 309.859C1053.16 309.184 1052.61 307.918 1052.19 306.061C1051.6 303.95 1051.09 302.388 1050.67 301.375C1048.73 296.732 1045.73 293.102 1041.68 290.486C1037.63 287.869 1033.07 286.56 1028 286.56C1022.94 286.56 1018.46 287.826 1014.58 290.359C1010.78 292.807 1007.91 296.31 1005.97 300.869C1005.46 301.966 1004.92 303.655 1004.32 305.934C1004.07 306.778 1003.78 307.538 1003.44 308.213C1003.19 308.889 1002.85 309.437 1002.43 309.859L1003.57 311.632ZM1073.36 350V280.482H1081.59V286.56C1081.59 287.911 1081.46 289.008 1081.21 289.852C1081.04 290.697 1080.66 291.583 1080.07 292.512L1081.84 293.525C1083.95 288.544 1086.7 284.914 1090.07 282.635C1093.45 280.355 1097.76 279.216 1102.99 279.216H1105.27V287.32H1102.1C1095.44 287.32 1090.5 289.346 1087.29 293.398C1085.26 295.93 1083.79 299.012 1082.86 302.642C1082.01 306.272 1081.59 310.746 1081.59 316.064V350H1073.36Z" fill="white"/>
<path d="M393.974 351.773C383.59 351.773 374.853 349.493 367.762 344.935C360.755 340.376 355.521 334.298 352.06 326.701C348.599 319.103 346.869 310.746 346.869 301.629C346.869 292.512 348.599 284.196 352.06 276.683C355.521 269.086 360.755 263.008 367.762 258.449C374.853 253.89 383.59 251.611 393.974 251.611C406.13 251.611 415.965 254.481 423.478 260.222C430.991 265.962 435.761 273.771 437.787 283.648H417.78C416.176 278.583 413.348 274.699 409.296 271.998C405.328 269.297 400.178 267.946 393.847 267.946C387.853 267.946 382.746 269.423 378.525 272.378C374.389 275.248 371.223 279.216 369.028 284.281C366.918 289.346 365.863 295.086 365.863 301.502C365.863 311.632 368.395 319.821 373.46 326.068C378.61 332.314 385.954 335.438 395.493 335.438C401.318 335.438 406.299 334.256 410.435 331.892C414.656 329.444 417.569 326.11 419.172 321.889C419.763 320.369 420.228 318.554 420.565 316.444C420.819 314.165 421.367 312.603 422.211 311.759L420.692 310.239C419.51 311.168 418.37 311.801 417.273 312.139C416.176 312.392 414.529 312.519 412.335 312.519H399.165V297.45H438.673V350H422.085V336.198H420.059C420.059 340.503 418.075 344.006 414.107 346.708C409.211 350.084 402.5 351.773 393.974 351.773ZM451.758 350V253.384H493.418C502.873 253.384 510.344 255.748 515.831 260.475C521.318 265.118 524.062 272.251 524.062 281.875C524.062 287.953 522.753 293.229 520.136 297.703C517.604 302.093 514.016 305.47 509.373 307.833C504.815 310.197 499.496 311.379 493.418 311.379H469.992V350H451.758ZM490.886 295.424C495.782 295.424 499.496 294.327 502.029 292.132C504.646 289.937 505.954 286.729 505.954 282.508C505.954 278.372 504.646 275.206 502.029 273.011C499.412 270.816 495.697 269.719 490.886 269.719H469.992V295.424H490.886ZM573.955 350H555.72V269.719H526.216V253.384H603.332V269.719H573.955V350ZM673.722 350H612.181V253.384H673.722V261.235H620.918V297.577H667.264V305.427H620.918V342.149H673.722V350ZM685.799 350V280.482H694.029V286.56C694.029 287.911 693.903 289.008 693.649 289.852C693.481 290.697 693.101 291.583 692.51 292.512L694.283 293.525C696.9 288.544 699.981 284.914 703.526 282.635C707.156 280.355 711.588 279.216 716.822 279.216C721.043 279.216 724.757 280.187 727.965 282.128C731.173 283.985 733.706 286.56 735.563 289.852C736.998 292.469 737.927 295.255 738.349 298.21C738.771 301.08 738.982 304.119 738.982 307.327V350H730.751V306.947C730.751 300.953 729.738 296.31 727.712 293.018C725.095 288.713 720.874 286.56 715.049 286.56C709.731 286.56 705.299 288.459 701.754 292.258C699.221 295.128 697.279 298.969 695.929 303.781C694.662 308.509 694.029 314.756 694.029 322.522V350H685.799ZM783.886 378.364C767.171 378.364 756.956 371.273 753.242 357.091H761.473C762.908 361.818 765.356 365.322 768.817 367.601C772.363 369.88 777.343 371.02 783.759 371.02C791.61 371.02 797.35 369.289 800.98 365.828C804.61 362.367 806.425 357.26 806.425 350.507V343.922C806.425 342.571 806.51 341.474 806.679 340.63C806.932 339.785 807.354 338.899 807.945 337.97L806.172 336.957C800.01 346.497 791.821 351.266 781.606 351.266C775.697 351.266 770.421 349.747 765.778 346.708C761.135 343.584 757.547 339.279 755.015 333.792C752.482 328.305 751.216 322.058 751.216 315.051C751.216 308.129 752.482 301.966 755.015 296.564C757.547 291.076 761.135 286.813 765.778 283.774C770.421 280.735 775.697 279.216 781.606 279.216C791.821 279.216 800.01 283.985 806.172 293.525L807.945 292.512C807.354 291.583 806.932 290.697 806.679 289.852C806.51 289.008 806.425 287.911 806.425 286.56V280.482H814.656V349.114C814.656 359.328 811.997 366.757 806.679 371.4C801.445 376.043 793.847 378.364 783.886 378.364ZM782.366 343.922C787.009 343.922 791.146 342.698 794.776 340.25C798.49 337.717 801.402 334.298 803.513 329.993C805.623 325.603 806.679 320.707 806.679 315.304C806.679 309.902 805.623 305.005 803.513 300.616C801.402 296.226 798.49 292.807 794.776 290.359C791.146 287.826 787.009 286.56 782.366 286.56C777.639 286.56 773.545 287.826 770.083 290.359C766.622 292.807 763.963 296.226 762.106 300.616C760.333 304.921 759.447 309.817 759.447 315.304C759.447 320.707 760.375 325.603 762.233 329.993C764.09 334.298 766.749 337.717 770.21 340.25C773.671 342.698 777.723 343.922 782.366 343.922ZM838.471 350H830.24V280.482H838.471V350ZM834.419 264.4C832.73 264.4 831.253 263.809 829.987 262.628C828.805 261.361 828.214 259.884 828.214 258.196C828.214 256.507 828.805 255.072 829.987 253.89C831.253 252.709 832.73 252.118 834.419 252.118C836.107 252.118 837.542 252.709 838.724 253.89C839.99 255.072 840.623 256.507 840.623 258.196C840.623 259.884 839.99 261.361 838.724 262.628C837.542 263.809 836.107 264.4 834.419 264.4ZM854.044 350V280.482H862.275V286.56C862.275 287.911 862.148 289.008 861.895 289.852C861.726 290.697 861.346 291.583 860.755 292.512L862.528 293.525C865.145 288.544 868.226 284.914 871.771 282.635C875.401 280.355 879.833 279.216 885.067 279.216C889.288 279.216 893.003 280.187 896.21 282.128C899.418 283.985 901.951 286.56 903.808 289.852C905.243 292.469 906.172 295.255 906.594 298.21C907.016 301.08 907.227 304.119 907.227 307.327V350H898.996V306.947C898.996 300.953 897.983 296.31 895.957 293.018C893.34 288.713 889.119 286.56 883.295 286.56C877.976 286.56 873.544 288.459 869.999 292.258C867.466 295.128 865.525 298.969 864.174 303.781C862.908 308.509 862.275 314.756 862.275 322.522V350H854.044ZM952.384 351.266C946.053 351.266 940.355 349.705 935.29 346.581C930.224 343.458 926.257 339.152 923.387 333.665C920.601 328.178 919.208 322.058 919.208 315.304C919.208 308.804 920.559 302.81 923.26 297.323C925.961 291.836 929.802 287.446 934.783 284.154C939.848 280.862 945.673 279.216 952.258 279.216C958.082 279.216 963.401 280.566 968.212 283.268C973.109 285.969 977.076 289.852 980.115 294.917C983.154 299.982 984.843 305.976 985.18 312.898C985.265 313.658 985.307 314.924 985.307 316.697H936.682C931.871 316.697 928.409 316.613 926.299 316.444L925.793 318.343C926.552 318.512 927.059 318.934 927.312 319.61C927.65 320.201 927.987 321.171 928.325 322.522C928.747 324.295 929.085 325.561 929.338 326.321C931.195 331.808 934.15 336.113 938.202 339.237C942.338 342.36 947.066 343.922 952.384 343.922C957.871 343.922 962.599 342.445 966.566 339.49C970.534 336.535 973.362 332.737 975.05 328.094H983.788C981.677 334.931 977.92 340.503 972.518 344.808C967.115 349.114 960.404 351.266 952.384 351.266ZM927.945 311.632C929.634 310.872 931.069 310.408 932.25 310.239C933.517 310.07 934.994 309.986 936.682 309.986H968.972C970.492 309.986 971.8 310.07 972.898 310.239C973.995 310.408 975.346 310.872 976.95 311.632L978.216 309.859C977.541 309.184 976.992 307.918 976.57 306.061C975.979 303.95 975.472 302.388 975.05 301.375C973.109 296.732 970.112 293.102 966.06 290.486C962.008 287.869 957.449 286.56 952.384 286.56C947.319 286.56 942.845 287.826 938.962 290.359C935.163 292.807 932.293 296.31 930.351 300.869C929.845 301.966 929.296 303.655 928.705 305.934C928.452 306.778 928.156 307.538 927.819 308.213C927.565 308.889 927.228 309.437 926.806 309.859L927.945 311.632ZM1028 351.266C1021.67 351.266 1015.97 349.705 1010.91 346.581C1005.84 343.458 1001.88 339.152 999.006 333.665C996.221 328.178 994.828 322.058 994.828 315.304C994.828 308.804 996.178 302.81 998.88 297.323C1001.58 291.836 1005.42 287.446 1010.4 284.154C1015.47 280.862 1021.29 279.216 1027.88 279.216C1033.7 279.216 1039.02 280.566 1043.83 283.268C1048.73 285.969 1052.7 289.852 1055.74 294.917C1058.77 299.982 1060.46 305.976 1060.8 312.898C1060.88 313.658 1060.93 314.924 1060.93 316.697H1012.3C1007.49 316.697 1004.03 316.613 1001.92 316.444L1001.41 318.343C1002.17 318.512 1002.68 318.934 1002.93 319.61C1003.27 320.201 1003.61 321.171 1003.94 322.522C1004.37 324.295 1004.7 325.561 1004.96 326.321C1006.82 331.808 1009.77 336.113 1013.82 339.237C1017.96 342.36 1022.69 343.922 1028 343.922C1033.49 343.922 1038.22 342.445 1042.19 339.49C1046.15 336.535 1048.98 332.737 1050.67 328.094H1059.41C1057.3 334.931 1053.54 340.503 1048.14 344.808C1042.73 349.114 1036.02 351.266 1028 351.266ZM1003.57 311.632C1005.25 310.872 1006.69 310.408 1007.87 310.239C1009.14 310.07 1010.61 309.986 1012.3 309.986H1044.59C1046.11 309.986 1047.42 310.07 1048.52 310.239C1049.61 310.408 1050.97 310.872 1052.57 311.632L1053.84 309.859C1053.16 309.184 1052.61 307.918 1052.19 306.061C1051.6 303.95 1051.09 302.388 1050.67 301.375C1048.73 296.732 1045.73 293.102 1041.68 290.486C1037.63 287.869 1033.07 286.56 1028 286.56C1022.94 286.56 1018.46 287.826 1014.58 290.359C1010.78 292.807 1007.91 296.31 1005.97 300.869C1005.46 301.966 1004.92 303.655 1004.32 305.934C1004.07 306.778 1003.78 307.538 1003.44 308.213C1003.19 308.889 1002.85 309.437 1002.43 309.859L1003.57 311.632ZM1073.36 350V280.482H1081.59V286.56C1081.59 287.911 1081.46 289.008 1081.21 289.852C1081.04 290.697 1080.66 291.583 1080.07 292.512L1081.84 293.525C1083.95 288.544 1086.7 284.914 1090.07 282.635C1093.45 280.355 1097.76 279.216 1102.99 279.216H1105.27V287.32H1102.1C1095.44 287.32 1090.5 289.346 1087.29 293.398C1085.26 295.93 1083.79 299.012 1082.86 302.642C1082.01 306.272 1081.59 310.746 1081.59 316.064V350H1073.36Z" fill="url(#paint0_linear_4409_16219)"/>
<path fill-rule="evenodd" clip-rule="evenodd" d="M197.129 363.815C207.355 370.267 219.833 373.493 234.563 373.493C249.414 373.493 261.892 370.267 271.996 363.815C282.222 357.241 289.83 348.477 294.821 337.52C299.812 326.564 302.308 314.452 302.308 301.183C302.308 287.914 299.812 275.862 294.821 265.028C289.83 254.071 282.222 245.367 271.996 238.915C261.892 232.342 249.414 229.055 234.563 229.055C219.833 229.055 207.355 232.342 197.129 238.915C187.025 245.367 179.478 254.071 174.487 265.028C169.496 275.862 167 287.914 167 301.183C167 314.452 169.496 326.564 174.487 337.52C179.478 348.477 187.025 357.241 197.129 363.815ZM195.843 304.167V315.786L231.287 303.29V290.574L195.843 278.223V289.843L213.382 295.543C214.795 295.982 215.989 296.25 216.963 296.347C217.986 296.444 218.595 296.518 218.79 296.566V297.443C218.595 297.492 217.986 297.565 216.963 297.662C215.989 297.76 214.795 298.028 213.382 298.466L195.843 304.167ZM228.915 331.499H263.262L264.797 322.656H230.449L228.915 331.499Z" fill="white"/>
<path fill-rule="evenodd" clip-rule="evenodd" d="M197.129 363.815C207.355 370.267 219.833 373.493 234.563 373.493C249.414 373.493 261.892 370.267 271.996 363.815C282.222 357.241 289.83 348.477 294.821 337.52C299.812 326.564 302.308 314.452 302.308 301.183C302.308 287.914 299.812 275.862 294.821 265.028C289.83 254.071 282.222 245.367 271.996 238.915C261.892 232.342 249.414 229.055 234.563 229.055C219.833 229.055 207.355 232.342 197.129 238.915C187.025 245.367 179.478 254.071 174.487 265.028C169.496 275.862 167 287.914 167 301.183C167 314.452 169.496 326.564 174.487 337.52C179.478 348.477 187.025 357.241 197.129 363.815ZM195.843 304.167V315.786L231.287 303.29V290.574L195.843 278.223V289.843L213.382 295.543C214.795 295.982 215.989 296.25 216.963 296.347C217.986 296.444 218.595 296.518 218.79 296.566V297.443C218.595 297.492 217.986 297.565 216.963 297.662C215.989 297.76 214.795 298.028 213.382 298.466L195.843 304.167ZM228.915 331.499H263.262L264.797 322.656H230.449L228.915 331.499Z" fill="url(#paint1_linear_4409_16219)"/>
<path d="M275.943 455H271.011C270.719 453.581 270.209 452.335 269.48 451.261C268.764 450.188 267.889 449.286 266.855 448.557C265.834 447.814 264.7 447.258 263.454 446.886C262.208 446.515 260.909 446.33 259.556 446.33C257.091 446.33 254.857 446.953 252.855 448.199C250.866 449.445 249.282 451.281 248.102 453.707C246.935 456.134 246.352 459.11 246.352 462.636C246.352 466.163 246.935 469.139 248.102 471.565C249.282 473.991 250.866 475.828 252.855 477.074C254.857 478.32 257.091 478.943 259.556 478.943C260.909 478.943 262.208 478.758 263.454 478.386C264.7 478.015 265.834 477.465 266.855 476.736C267.889 475.993 268.764 475.085 269.48 474.011C270.209 472.924 270.719 471.678 271.011 470.273H275.943C275.572 472.354 274.895 474.217 273.914 475.861C272.933 477.505 271.714 478.903 270.255 480.057C268.797 481.197 267.16 482.065 265.343 482.662C263.54 483.259 261.611 483.557 259.556 483.557C256.083 483.557 252.994 482.708 250.289 481.011C247.585 479.314 245.457 476.902 243.906 473.773C242.355 470.644 241.579 466.932 241.579 462.636C241.579 458.341 242.355 454.629 243.906 451.5C245.457 448.371 247.585 445.958 250.289 444.261C252.994 442.564 256.083 441.716 259.556 441.716C261.611 441.716 263.54 442.014 265.343 442.611C267.16 443.207 268.797 444.082 270.255 445.236C271.714 446.376 272.933 447.768 273.914 449.412C274.895 451.043 275.572 452.905 275.943 455ZM287.969 464.625V483H283.276V442.273H287.969V457.227H288.367C289.083 455.65 290.157 454.397 291.588 453.469C293.033 452.527 294.956 452.057 297.355 452.057C299.437 452.057 301.26 452.474 302.824 453.31C304.389 454.132 305.602 455.398 306.463 457.108C307.338 458.805 307.776 460.966 307.776 463.591V483H303.083V463.909C303.083 461.483 302.453 459.607 301.194 458.281C299.947 456.942 298.217 456.273 296.003 456.273C294.465 456.273 293.087 456.598 291.867 457.247C290.66 457.897 289.706 458.845 289.003 460.091C288.314 461.337 287.969 462.848 287.969 464.625ZM325.35 483.716C323.415 483.716 321.658 483.351 320.081 482.622C318.503 481.88 317.25 480.812 316.322 479.42C315.394 478.015 314.93 476.318 314.93 474.33C314.93 472.58 315.275 471.161 315.964 470.074C316.654 468.973 317.575 468.112 318.728 467.489C319.882 466.866 321.154 466.402 322.547 466.097C323.952 465.778 325.364 465.527 326.782 465.341C328.638 465.102 330.143 464.923 331.297 464.804C332.463 464.671 333.312 464.453 333.842 464.148C334.386 463.843 334.657 463.312 334.657 462.557V462.398C334.657 460.436 334.12 458.911 333.047 457.824C331.986 456.737 330.375 456.193 328.214 456.193C325.974 456.193 324.217 456.684 322.944 457.665C321.672 458.646 320.777 459.693 320.26 460.807L315.805 459.216C316.6 457.36 317.661 455.915 318.987 454.881C320.326 453.833 321.784 453.104 323.362 452.693C324.953 452.269 326.517 452.057 328.055 452.057C329.036 452.057 330.163 452.176 331.436 452.415C332.722 452.64 333.961 453.111 335.154 453.827C336.361 454.543 337.362 455.623 338.157 457.068C338.953 458.513 339.35 460.449 339.35 462.875V483H334.657V478.864H334.419C334.1 479.527 333.57 480.236 332.828 480.991C332.085 481.747 331.098 482.39 329.865 482.92C328.632 483.451 327.127 483.716 325.35 483.716ZM326.066 479.5C327.922 479.5 329.487 479.135 330.76 478.406C332.046 477.677 333.013 476.736 333.663 475.582C334.326 474.429 334.657 473.216 334.657 471.943V467.648C334.458 467.886 334.021 468.105 333.345 468.304C332.682 468.49 331.913 468.655 331.038 468.801C330.176 468.934 329.334 469.053 328.512 469.159C327.704 469.252 327.047 469.331 326.544 469.398C325.324 469.557 324.184 469.815 323.123 470.173C322.076 470.518 321.227 471.042 320.578 471.744C319.941 472.434 319.623 473.375 319.623 474.568C319.623 476.199 320.226 477.432 321.433 478.267C322.653 479.089 324.197 479.5 326.066 479.5ZM361.201 452.455V456.432H345.371V452.455H361.201ZM349.985 445.136H354.678V474.25C354.678 475.576 354.87 476.57 355.255 477.233C355.652 477.883 356.156 478.32 356.766 478.545C357.389 478.758 358.045 478.864 358.735 478.864C359.252 478.864 359.676 478.837 360.007 478.784C360.339 478.718 360.604 478.665 360.803 478.625L361.757 482.841C361.439 482.96 360.995 483.08 360.425 483.199C359.855 483.331 359.132 483.398 358.257 483.398C356.932 483.398 355.632 483.113 354.36 482.543C353.1 481.973 352.053 481.104 351.218 479.938C350.396 478.771 349.985 477.299 349.985 475.523V445.136ZM390.931 483L381.624 452.455H386.556L393.158 475.841H393.476L399.999 452.455H405.01L411.453 475.761H411.772L418.374 452.455H423.306L413.999 483H409.385L402.703 459.534H402.226L395.544 483H390.931ZM429.51 483V452.455H434.203V483H429.51ZM431.897 447.364C430.982 447.364 430.193 447.052 429.53 446.429C428.881 445.806 428.556 445.057 428.556 444.182C428.556 443.307 428.881 442.558 429.53 441.935C430.193 441.312 430.982 441 431.897 441C432.811 441 433.594 441.312 434.243 441.935C434.906 442.558 435.238 443.307 435.238 444.182C435.238 445.057 434.906 445.806 434.243 446.429C433.594 447.052 432.811 447.364 431.897 447.364ZM456.083 452.455V456.432H440.254V452.455H456.083ZM444.868 445.136H449.561V474.25C449.561 475.576 449.753 476.57 450.137 477.233C450.535 477.883 451.039 478.32 451.649 478.545C452.272 478.758 452.928 478.864 453.618 478.864C454.135 478.864 454.559 478.837 454.89 478.784C455.222 478.718 455.487 478.665 455.686 478.625L456.64 482.841C456.322 482.96 455.878 483.08 455.308 483.199C454.738 483.331 454.015 483.398 453.14 483.398C451.815 483.398 450.515 483.113 449.243 482.543C447.983 481.973 446.936 481.104 446.1 479.938C445.279 478.771 444.868 477.299 444.868 475.523V445.136ZM468.493 464.625V483H463.799V442.273H468.493V457.227H468.89C469.606 455.65 470.68 454.397 472.112 453.469C473.557 452.527 475.479 452.057 477.879 452.057C479.96 452.057 481.783 452.474 483.348 453.31C484.912 454.132 486.125 455.398 486.987 457.108C487.862 458.805 488.299 460.966 488.299 463.591V483H483.606V463.909C483.606 461.483 482.976 459.607 481.717 458.281C480.471 456.942 478.741 456.273 476.527 456.273C474.989 456.273 473.61 456.598 472.39 457.247C471.184 457.897 470.229 458.845 469.527 460.091C468.837 461.337 468.493 462.848 468.493 464.625ZM514.942 483H509.772L524.726 442.273H529.817L544.772 483H539.601L527.431 448.716H527.113L514.942 483ZM516.851 467.091H537.692V471.466H516.851V467.091ZM556.047 442.273V483H551.115V442.273H556.047ZM594.333 452.455V456.432H578.504V452.455H594.333ZM583.118 445.136H587.811V474.25C587.811 475.576 588.003 476.57 588.387 477.233C588.785 477.883 589.289 478.32 589.899 478.545C590.522 478.758 591.178 478.864 591.868 478.864C592.385 478.864 592.809 478.837 593.14 478.784C593.472 478.718 593.737 478.665 593.936 478.625L594.89 482.841C594.572 482.96 594.128 483.08 593.558 483.199C592.988 483.331 592.265 483.398 591.39 483.398C590.065 483.398 588.765 483.113 587.493 482.543C586.233 481.973 585.186 481.104 584.35 479.938C583.529 478.771 583.118 477.299 583.118 475.523V445.136ZM613.474 483.636C610.717 483.636 608.297 482.98 606.216 481.668C604.147 480.355 602.53 478.519 601.363 476.159C600.21 473.799 599.633 471.042 599.633 467.886C599.633 464.705 600.21 461.927 601.363 459.554C602.53 457.181 604.147 455.338 606.216 454.026C608.297 452.713 610.717 452.057 613.474 452.057C616.232 452.057 618.645 452.713 620.713 454.026C622.794 455.338 624.412 457.181 625.565 459.554C626.732 461.927 627.315 464.705 627.315 467.886C627.315 471.042 626.732 473.799 625.565 476.159C624.412 478.519 622.794 480.355 620.713 481.668C618.645 482.98 616.232 483.636 613.474 483.636ZM613.474 479.42C615.569 479.42 617.292 478.884 618.645 477.81C619.997 476.736 620.998 475.324 621.647 473.574C622.297 471.824 622.622 469.928 622.622 467.886C622.622 465.845 622.297 463.942 621.647 462.179C620.998 460.416 619.997 458.991 618.645 457.903C617.292 456.816 615.569 456.273 613.474 456.273C611.379 456.273 609.656 456.816 608.304 457.903C606.951 458.991 605.95 460.416 605.301 462.179C604.651 463.942 604.326 465.845 604.326 467.886C604.326 469.928 604.651 471.824 605.301 473.574C605.95 475.324 606.951 476.736 608.304 477.81C609.656 478.884 611.379 479.42 613.474 479.42ZM650.865 483V442.273H655.559V457.307H655.956C656.301 456.777 656.778 456.1 657.388 455.278C658.011 454.443 658.9 453.701 660.053 453.051C661.22 452.388 662.797 452.057 664.786 452.057C667.358 452.057 669.625 452.7 671.587 453.986C673.549 455.272 675.08 457.095 676.181 459.455C677.281 461.814 677.831 464.598 677.831 467.807C677.831 471.042 677.281 473.846 676.181 476.219C675.08 478.579 673.556 480.408 671.607 481.707C669.658 482.993 667.411 483.636 664.865 483.636C662.903 483.636 661.332 483.312 660.152 482.662C658.972 481.999 658.064 481.25 657.428 480.415C656.792 479.566 656.301 478.864 655.956 478.307H655.4V483H650.865ZM655.479 467.727C655.479 470.034 655.817 472.069 656.493 473.832C657.169 475.582 658.157 476.955 659.456 477.949C660.756 478.93 662.346 479.42 664.229 479.42C666.191 479.42 667.828 478.903 669.141 477.869C670.467 476.822 671.461 475.417 672.124 473.653C672.8 471.877 673.138 469.902 673.138 467.727C673.138 465.58 672.807 463.644 672.144 461.92C671.494 460.184 670.507 458.812 669.181 457.804C667.868 456.783 666.218 456.273 664.229 456.273C662.32 456.273 660.716 456.757 659.417 457.724C658.117 458.679 657.136 460.018 656.473 461.741C655.81 463.452 655.479 465.447 655.479 467.727ZM704.26 470.511V452.455H708.953V483H704.26V477.83H703.942C703.226 479.381 702.113 480.7 700.601 481.787C699.09 482.861 697.181 483.398 694.874 483.398C692.965 483.398 691.268 482.98 689.783 482.145C688.298 481.296 687.132 480.024 686.283 478.327C685.435 476.616 685.01 474.462 685.01 471.864V452.455H689.703V471.545C689.703 473.773 690.327 475.549 691.573 476.875C692.832 478.201 694.436 478.864 696.385 478.864C697.552 478.864 698.739 478.565 699.945 477.969C701.165 477.372 702.185 476.457 703.007 475.224C703.843 473.991 704.26 472.42 704.26 470.511ZM717.549 483V452.455H722.243V483H717.549ZM719.936 447.364C719.021 447.364 718.232 447.052 717.569 446.429C716.92 445.806 716.595 445.057 716.595 444.182C716.595 443.307 716.92 442.558 717.569 441.935C718.232 441.312 719.021 441 719.936 441C720.85 441 721.633 441.312 722.282 441.935C722.945 442.558 723.277 443.307 723.277 444.182C723.277 445.057 722.945 445.806 722.282 446.429C721.633 447.052 720.85 447.364 719.936 447.364ZM735.532 442.273V483H730.838V442.273H735.532ZM755.662 483.636C753.116 483.636 750.869 482.993 748.92 481.707C746.971 480.408 745.447 478.579 744.346 476.219C743.246 473.846 742.696 471.042 742.696 467.807C742.696 464.598 743.246 461.814 744.346 459.455C745.447 457.095 746.978 455.272 748.94 453.986C750.902 452.7 753.169 452.057 755.741 452.057C757.73 452.057 759.301 452.388 760.454 453.051C761.621 453.701 762.509 454.443 763.119 455.278C763.742 456.1 764.226 456.777 764.571 457.307H764.968V442.273H769.662V483H765.127V478.307H764.571C764.226 478.864 763.735 479.566 763.099 480.415C762.463 481.25 761.555 481.999 760.375 482.662C759.195 483.312 757.624 483.636 755.662 483.636ZM756.298 479.42C758.181 479.42 759.771 478.93 761.071 477.949C762.37 476.955 763.358 475.582 764.034 473.832C764.71 472.069 765.048 470.034 765.048 467.727C765.048 465.447 764.717 463.452 764.054 461.741C763.391 460.018 762.41 458.679 761.11 457.724C759.811 456.757 758.207 456.273 756.298 456.273C754.309 456.273 752.652 456.783 751.326 457.804C750.014 458.812 749.026 460.184 748.363 461.92C747.714 463.644 747.389 465.58 747.389 467.727C747.389 469.902 747.72 471.877 748.383 473.653C749.059 475.417 750.054 476.822 751.366 477.869C752.692 478.903 754.336 479.42 756.298 479.42ZM808.261 452.455V456.432H791.795V452.455H808.261ZM796.727 483V448.239C796.727 446.489 797.138 445.03 797.96 443.864C798.782 442.697 799.849 441.822 801.162 441.239C802.474 440.655 803.859 440.364 805.318 440.364C806.471 440.364 807.413 440.456 808.142 440.642C808.871 440.828 809.414 441 809.772 441.159L808.42 445.216C808.181 445.136 807.85 445.037 807.426 444.918C807.015 444.798 806.471 444.739 805.795 444.739C804.244 444.739 803.124 445.13 802.434 445.912C801.758 446.694 801.42 447.841 801.42 449.352V483H796.727ZM814.838 483V452.455H819.373V457.068H819.691C820.248 455.557 821.255 454.33 822.713 453.389C824.172 452.448 825.816 451.977 827.645 451.977C827.99 451.977 828.421 451.984 828.938 451.997C829.455 452.01 829.846 452.03 830.111 452.057V456.83C829.952 456.79 829.587 456.73 829.017 456.651C828.461 456.558 827.871 456.511 827.248 456.511C825.763 456.511 824.437 456.823 823.27 457.446C822.117 458.056 821.202 458.904 820.526 459.991C819.863 461.065 819.532 462.292 819.532 463.67V483H814.838ZM847.154 483.636C844.396 483.636 841.977 482.98 839.895 481.668C837.827 480.355 836.21 478.519 835.043 476.159C833.89 473.799 833.313 471.042 833.313 467.886C833.313 464.705 833.89 461.927 835.043 459.554C836.21 457.181 837.827 455.338 839.895 454.026C841.977 452.713 844.396 452.057 847.154 452.057C849.911 452.057 852.324 452.713 854.392 454.026C856.474 455.338 858.091 457.181 859.245 459.554C860.411 461.927 860.995 464.705 860.995 467.886C860.995 471.042 860.411 473.799 859.245 476.159C858.091 478.519 856.474 480.355 854.392 481.668C852.324 482.98 849.911 483.636 847.154 483.636ZM847.154 479.42C849.248 479.42 850.972 478.884 852.324 477.81C853.676 476.736 854.677 475.324 855.327 473.574C855.977 471.824 856.301 469.928 856.301 467.886C856.301 465.845 855.977 463.942 855.327 462.179C854.677 460.416 853.676 458.991 852.324 457.903C850.972 456.816 849.248 456.273 847.154 456.273C845.059 456.273 843.336 456.816 841.983 457.903C840.631 458.991 839.63 460.416 838.98 462.179C838.331 463.942 838.006 465.845 838.006 467.886C838.006 469.928 838.331 471.824 838.98 473.574C839.63 475.324 840.631 476.736 841.983 477.81C843.336 478.884 845.059 479.42 847.154 479.42ZM872.852 464.625V483H868.159V452.455H872.693V457.227H873.091C873.806 455.676 874.894 454.43 876.352 453.489C877.81 452.534 879.693 452.057 882 452.057C884.068 452.057 885.877 452.481 887.429 453.33C888.98 454.165 890.186 455.438 891.048 457.148C891.91 458.845 892.341 460.992 892.341 463.591V483H887.647V463.909C887.647 461.509 887.024 459.64 885.778 458.301C884.532 456.949 882.822 456.273 880.647 456.273C879.149 456.273 877.81 456.598 876.63 457.247C875.464 457.897 874.542 458.845 873.866 460.091C873.19 461.337 872.852 462.848 872.852 464.625ZM914.201 452.455V456.432H898.371V452.455H914.201ZM902.985 445.136H907.678V474.25C907.678 475.576 907.87 476.57 908.255 477.233C908.652 477.883 909.156 478.32 909.766 478.545C910.389 478.758 911.045 478.864 911.735 478.864C912.252 478.864 912.676 478.837 913.007 478.784C913.339 478.718 913.604 478.665 913.803 478.625L914.757 482.841C914.439 482.96 913.995 483.08 913.425 483.199C912.855 483.331 912.132 483.398 911.257 483.398C909.932 483.398 908.632 483.113 907.36 482.543C906.1 481.973 905.053 481.104 904.218 479.938C903.396 478.771 902.985 477.299 902.985 475.523V445.136ZM937.667 463.352V467.727H919.848V463.352H937.667ZM958.731 483.636C955.788 483.636 953.249 482.987 951.115 481.688C948.993 480.375 947.356 478.545 946.203 476.199C945.063 473.839 944.493 471.095 944.493 467.966C944.493 464.837 945.063 462.08 946.203 459.693C947.356 457.294 948.96 455.424 951.015 454.085C953.083 452.733 955.496 452.057 958.254 452.057C959.845 452.057 961.416 452.322 962.967 452.852C964.518 453.383 965.93 454.244 967.203 455.438C968.475 456.617 969.49 458.182 970.245 460.131C971.001 462.08 971.379 464.479 971.379 467.33V469.318H947.833V465.261H966.606C966.606 463.538 966.261 462 965.572 460.648C964.896 459.295 963.928 458.228 962.669 457.446C961.422 456.664 959.951 456.273 958.254 456.273C956.385 456.273 954.767 456.737 953.402 457.665C952.049 458.58 951.009 459.773 950.279 461.244C949.55 462.716 949.186 464.294 949.186 465.977V468.682C949.186 470.989 949.583 472.944 950.379 474.548C951.188 476.139 952.308 477.352 953.74 478.188C955.172 479.009 956.835 479.42 958.731 479.42C959.964 479.42 961.078 479.248 962.072 478.903C963.08 478.545 963.948 478.015 964.677 477.312C965.406 476.597 965.97 475.708 966.368 474.648L970.902 475.92C970.424 477.458 969.622 478.811 968.495 479.977C967.368 481.131 965.976 482.032 964.319 482.682C962.662 483.318 960.799 483.636 958.731 483.636ZM983.211 464.625V483H978.518V452.455H983.052V457.227H983.45C984.166 455.676 985.253 454.43 986.711 453.489C988.17 452.534 990.052 452.057 992.359 452.057C994.427 452.057 996.237 452.481 997.788 453.33C999.339 454.165 1000.55 455.438 1001.41 457.148C1002.27 458.845 1002.7 460.992 1002.7 463.591V483H998.007V463.909C998.007 461.509 997.384 459.64 996.137 458.301C994.891 456.949 993.181 456.273 991.007 456.273C989.509 456.273 988.17 456.598 986.99 457.247C985.823 457.897 984.902 458.845 984.225 460.091C983.549 461.337 983.211 462.848 983.211 464.625ZM1022.81 483.636C1020.26 483.636 1018.02 482.993 1016.07 481.707C1014.12 480.408 1012.6 478.579 1011.49 476.219C1010.39 473.846 1009.84 471.042 1009.84 467.807C1009.84 464.598 1010.39 461.814 1011.49 459.455C1012.6 457.095 1014.13 455.272 1016.09 453.986C1018.05 452.7 1020.32 452.057 1022.89 452.057C1024.88 452.057 1026.45 452.388 1027.6 453.051C1028.77 453.701 1029.66 454.443 1030.27 455.278C1030.89 456.1 1031.37 456.777 1031.72 457.307H1032.12V442.273H1036.81V483H1032.28V478.307H1031.72C1031.37 478.864 1030.88 479.566 1030.25 480.415C1029.61 481.25 1028.7 481.999 1027.52 482.662C1026.34 483.312 1024.77 483.636 1022.81 483.636ZM1023.45 479.42C1025.33 479.42 1026.92 478.93 1028.22 477.949C1029.52 476.955 1030.51 475.582 1031.18 473.832C1031.86 472.069 1032.2 470.034 1032.2 467.727C1032.2 465.447 1031.86 463.452 1031.2 461.741C1030.54 460.018 1029.56 458.679 1028.26 457.724C1026.96 456.757 1025.36 456.273 1023.45 456.273C1021.46 456.273 1019.8 456.783 1018.47 457.804C1017.16 458.812 1016.17 460.184 1015.51 461.92C1014.86 463.644 1014.54 465.58 1014.54 467.727C1014.54 469.902 1014.87 471.877 1015.53 473.653C1016.21 475.417 1017.2 476.822 1018.51 477.869C1019.84 478.903 1021.48 479.42 1023.45 479.42Z" fill="#A1A1AA"/>
</g>
<defs>
<filter id="filter0_f_4409_16219" x="296.133" y="-141.041" width="1155.07" height="320.002" filterUnits="userSpaceOnUse" color-interpolation-filters="sRGB">
<feFlood flood-opacity="0" result="BackgroundImageFix"/>
<feBlend mode="normal" in="SourceGraphic" in2="BackgroundImageFix" result="shape"/>
<feGaussianBlur stdDeviation="61.0204" result="effect1_foregroundBlur_4409_16219"/>
</filter>
<filter id="filter1_f_4409_16219" x="158.722" y="-185.692" width="1306.49" height="344.183" filterUnits="userSpaceOnUse" color-interpolation-filters="sRGB">
<feFlood flood-opacity="0" result="BackgroundImageFix"/>
<feBlend mode="normal" in="SourceGraphic" in2="BackgroundImageFix" result="shape"/>
<feGaussianBlur stdDeviation="61.0204" result="effect1_foregroundBlur_4409_16219"/>
</filter>
<filter id="filter2_f_4409_16219" x="-113.832" y="-178.612" width="939.148" height="365.601" filterUnits="userSpaceOnUse" color-interpolation-filters="sRGB">
<feFlood flood-opacity="0" result="BackgroundImageFix"/>
<feBlend mode="normal" in="SourceGraphic" in2="BackgroundImageFix" result="shape"/>
<feGaussianBlur stdDeviation="61.0204" result="effect1_foregroundBlur_4409_16219"/>
</filter>
<filter id="filter3_f_4409_16219" x="-5.38206" y="-193.363" width="868.95" height="298.706" filterUnits="userSpaceOnUse" color-interpolation-filters="sRGB">
<feFlood flood-opacity="0" result="BackgroundImageFix"/>
<feBlend mode="normal" in="SourceGraphic" in2="BackgroundImageFix" result="shape"/>
<feGaussianBlur stdDeviation="40.6803" result="effect1_foregroundBlur_4409_16219"/>
</filter>
<filter id="filter4_f_4409_16219" x="-132.174" y="-133.365" width="637.431" height="257.484" filterUnits="userSpaceOnUse" color-interpolation-filters="sRGB">
<feFlood flood-opacity="0" result="BackgroundImageFix"/>
<feBlend mode="normal" in="SourceGraphic" in2="BackgroundImageFix" result="shape"/>
<feGaussianBlur stdDeviation="40.6803" result="effect1_foregroundBlur_4409_16219"/>
</filter>
<linearGradient id="paint0_linear_4409_16219" x1="727.93" y1="223" x2="727.93" y2="380" gradientUnits="userSpaceOnUse">
<stop stop-color="white"/>
<stop offset="1" stop-color="#999999"/>
</linearGradient>
<linearGradient id="paint1_linear_4409_16219" x1="234.654" y1="229.055" x2="234.654" y2="373.493" gradientUnits="userSpaceOnUse">
<stop stop-color="white"/>
<stop offset="1" stop-color="#999999"/>
</linearGradient>
<clipPath id="clip0_4409_16219">
<rect width="1280" height="720" fill="white"/>
</clipPath>
</defs>
</svg>
